<svg width="26" height="26" viewBox="0 0 26 26" fill="none" xmlns="http://www.w3.org/2000/svg">
<path d="M18.0498 3.28341L24.4665 1.53341L22.7165 7.95007M18.0498 3.28341L4.04982 17.2834M18.0498 3.28341L22.7165 7.95007M22.7165 7.95007L8.71648 21.9501M4.04982 17.2834L2.29982 19.0334C1.9934 19.3398 1.75034 19.7036 1.5845 20.1039C1.41867 20.5043 1.33332 20.9334 1.33332 21.3667C1.33332 21.8001 1.41867 22.2292 1.5845 22.6295C1.75034 23.0299 1.9934 23.3936 2.29982 23.7001C2.60623 24.0065 2.97001 24.2495 3.37036 24.4154C3.77071 24.5812 4.19981 24.6666 4.63315 24.6666C5.06649 24.6666 5.49559 24.5812 5.89594 24.4154C6.29629 24.2495 6.66006 24.0065 6.96648 23.7001L8.71648 21.9501M4.04982 17.2834L8.71648 21.9501" stroke="url(#paint0_linear)" stroke-width="2" stroke-linecap="round" stroke-linejoin="round"/>
<defs>
<linearGradient id="paint0_linear" x1="24.4665" y1="13.1351" x2="1.33332" y2="13.1351" gradientUnits="userSpaceOnUse">
<stop stop-color="#4B98B2"/>
<stop offset="1" stop-color="#50C879"/>
</linearGradient>
</defs>
</svg>
